<svg xmlns="http://www.w3.org/2000/svg" xmlns:xlink="http://www.w3.org/1999/xlink" xml:space="preserve">

    <symbol id="CW" viewBox="0 0 34 48">
        <path
            d="M16,6.5a6.5,6.5,0,0,0-13,0V31.57715A9.49838,9.49838,0,1,0,19,38.5a9.44953,9.44953,0,0,0-3-6.92285ZM9.5,45A6.49635,6.49635,0,0,1,5.439,33.43018L6,32.98V6.5a3.5,3.5,0,0,1,7,0V32.98l.561.4502A6.49635,6.49635,0,0,1,9.5,45Z" />
        <path d="M11,34.79663V25.5a1.5,1.5,0,0,0-3,0v9.29663a4,4,0,1,0,3,0Z" />
        <path d="M32.5,10.00006h-12a1.5,1.5,0,0,0,0,3h12a1.5,1.5,0,0,0,0-3Z" />
    </symbol>

    <symbol id="TC" viewBox="0 0 48.01906 47.99567">
        <path
            d="M47.62783,24.27785l-.04-.07a2.97161,2.97161,0,0,0-4.04-1.09l-4.63995,2.68a14.82416,14.82416,0,0,0-1.78-9.07995,1.51788,1.51788,0,0,0-.09-.18l-.03-.04-8.67-15.02a2.95731,2.95731,0,0,0-4.04-1.08l-.07995.04a2.97491,2.97491,0,0,0-1.08,4.04l2.67,4.63a14.88981,14.88981,0,0,0-9.25,1.88l-.11.06-14.97,8.65a2.95725,2.95725,0,0,0-1.08,4.04l.04.07a2.95722,2.95722,0,0,0,4.04,1.08l4.65-2.68a14.919,14.919,0,0,0,1.85,9.19.21221.21221,0,0,0,.03.07l.02.03,8.67,15.02a2.95966,2.95966,0,0,0,4.04,1.08l.08-.04a2.96607,2.96607,0,0,0,1.08-4.04l-2.67-4.63a14.74207,14.74207,0,0,0,8.91-1.7,2.90375,2.90375,0,0,0,.35-.18l.03-.02,15.03-8.67A2.97491,2.97491,0,0,0,47.62783,24.27785Zm-31.4,4.22c-.00995-.01-.00995-.02-.02-.03a8.9961,8.9961,0,0,1,3.24-12.22c.02-.01.05-.03.07-.04s.03-.02.05-.03a9.003,9.003,0,0,1,12.21,3.25c.01.02.03.05.04.07s.02.03.03.05a9.01219,9.01219,0,0,1-3.33,12.25c-.01.01-.02.01-.03.02A9.00068,9.00068,0,0,1,16.22781,28.49783Z" />
    </symbol>

    <symbol id="DR" viewBox="0 0 48 48">
        <path
            d="M45.5,43H35V19.9541A4.038,4.038,0,0,1,39.0459,16,3.95843,3.95843,0,0,1,43,19.9541c0,.01575.00415.03028.00464.0459H43v.68829a3.491,3.491,0,0,0-2,3.15027c0,1.74964,2.86737,5.43482,3.4115,6.11829a.11237.11237,0,0,0,.17706,0C45.13263,29.27338,48,25.5882,48,23.83856a3.491,3.491,0,0,0-2-3.15027V20h-.00464c.00049-.01562.00464-.03015.00464-.0459A6.9617,6.9617,0,0,0,39.0459,13,7.04078,7.04078,0,0,0,32,19.9541V25H29.5a4.06619,4.06619,0,0,0-.5.03A5.5338,5.5338,0,0,0,24.03,30a4.06619,4.06619,0,0,0-.03.5v1.18829a3.491,3.491,0,0,0-2,3.15027c0,1.74964,2.86737,5.43482,3.4115,6.11829a.11237.11237,0,0,0,.17706,0C26.13263,40.27338,29,36.5882,29,34.83856a3.491,3.491,0,0,0-2-3.15027V30.5A2.50091,2.50091,0,0,1,29.5,28H32V43H2.5a2.5,2.5,0,0,0,0,5h43a2.5,2.5,0,0,0,0-5Z" />
        <path d="M12.5,6A1.50008,1.50008,0,0,0,14,4.5v-3a1.5,1.5,0,0,0-3,0v3A1.50008,1.50008,0,0,0,12.5,6Z" />
        <path d="M11,20.5v3a1.5,1.5,0,0,0,3,0v-3a1.5,1.5,0,0,0-3,0Z" />
        <path
            d="M19.21753,7.90381l2.12128-2.12134a1.5,1.5,0,1,0-2.12128-2.12128L17.09619,5.78247a1.5,1.5,0,0,0,2.12134,2.12134Z" />
        <path
            d="M5.78247,17.09619,3.66119,19.21753a1.5,1.5,0,0,0,2.12128,2.12128l2.12134-2.12128a1.5,1.5,0,0,0-2.12134-2.12134Z" />
        <path d="M19,12.5A1.50008,1.50008,0,0,0,20.5,14h3a1.5,1.5,0,0,0,0-3h-3A1.50008,1.50008,0,0,0,19,12.5Z" />
        <path d="M1.5,14h3a1.5,1.5,0,0,0,0-3h-3a1.5,1.5,0,0,0,0,3Z" />
        <path
            d="M17.09619,17.09619a1.50008,1.50008,0,0,0,0,2.12134l2.12134,2.12128a1.5,1.5,0,0,0,2.12128-2.12128l-2.12128-2.12134A1.50008,1.50008,0,0,0,17.09619,17.09619Z" />
        <path d="M5.78247,7.90381A1.5,1.5,0,0,0,7.90381,5.78247L5.78247,3.66119A1.5,1.5,0,0,0,3.66119,5.78247Z" />
        <circle cx="12.5" cy="12.5" r="4.5" />
    </symbol>

    <symbol id="EQ" viewBox="0 0 40 48.00002">
        <path
            d="M39.57,18.04,20.69.27a1.01658,1.01658,0,0,0-1.38,0L.43,18.04a1.31057,1.31057,0,0,0-.43.98V47a1.003,1.003,0,0,0,1,1H14.18l8.91-8.92L14.66,31.49A1.9938,1.9938,0,0,1,14,29.98a2.01493,2.01493,0,0,1,.7-1.5l5.36-4.59-3.47-3.48a1.97384,1.97384,0,0,1,0-2.82l4-4A1.994,1.994,0,0,1,23.41,16.41L20.83,19l3.58,3.59A1.97412,1.97412,0,0,1,25,24.08a2.013,2.013,0,0,1-.7,1.44l-5.27,4.52,8.31,7.47a1.99529,1.99529,0,0,1,.06994,2.9L19.82,48H39a1.003,1.003,0,0,0,1-1V19.02A1.31057,1.31057,0,0,0,39.57,18.04Z" />
    </symbol>

    <symbol id="EP" viewBox="0 0 48 42.00001">
        <path
            d="M47.99927,29.49275v-.49243h-.04956L47.94958,29h.04993v.00977L48,29A12.98961,12.98961,0,0,0,35.53406,16.027c-.03211-.06189-.058-.12744-.09107-.18872A12.52392,12.52392,0,0,0,33.53967,1.11616l.00147-.00146L33.15063.71626l-.00146.00147a2.41219,2.41219,0,0,0-3.447.01367A2.53572,2.53572,0,0,0,29.68872,4.25l-.00146.002.36145.36865A7.01348,7.01348,0,0,1,32,10a8.68824,8.68824,0,0,1-.22949,1.60279,12.90063,12.90063,0,0,0-15.53882-.00165A8.65464,8.65464,0,0,1,16,10a6.995,6.995,0,0,1,1.94958-5.37255l-.04125-.042.00024-.00048.04163.043.34668-.3667-.00123-.00146A2.53638,2.53638,0,0,0,18.28967.732,2.41312,2.41312,0,0,0,14.83362.7256L14.832.72706,14.82617.732l-.00476.00586-.34082.34814.03442.03516h-.00012L14.4801,1.086l.007-.00732-.0072.00683A12.51279,12.51279,0,0,0,12.561,15.83009c-.03467.06391-.06153.13233-.0951.1969A12.98961,12.98961,0,0,0,0,29l.00049.00977V29H.05042l-.00013.00031H.00073v.49243L0,29.5l.00073.00727v.00256H.001a2.499,2.499,0,0,0,4.998,0h.00171L5.01,29.00032h-.0603L4.94958,29h.0597a7.99745,7.99745,0,0,1,6.02807-7.73681C11.02344,21.5085,11,21.7513,11,22a13.01276,13.01276,0,0,0,8.17944,12.06287A7.97426,7.97426,0,0,1,13,37h-.52148v.0022a2.49788,2.49788,0,0,0,0,4.99561V42h.56372v-.00213A12.97742,12.97742,0,0,0,24,35.906a12.97742,12.97742,0,0,0,10.95776,6.09192V42h.56372v-.00219a2.49788,2.49788,0,0,0,0-4.99561V37H35a7.97426,7.97426,0,0,1-6.17944-2.93713A13.01276,13.01276,0,0,0,37,22c0-.24871-.02344-.49151-.03735-.73681A7.99745,7.99745,0,0,1,42.99072,29h.0597l-.00013.00031H42.99l.00928.50952H43.001a2.499,2.499,0,0,0,4.998,0h.00025v-.00256L48,29.5ZM24,13a8.95255,8.95255,0,0,1,5.913,2.23175c-.12146.14112-.2406.28357-.37292.41864a7.69431,7.69431,0,0,1-11.07007,0c-.13379-.13671-.25464-.2807-.37756-.42358A8.95276,8.95276,0,0,1,24,13Zm-9,9c0-.24231.01758-.48028.03638-.71777a7.93921,7.93921,0,0,1,5.82031,9.14008A9.00665,9.00665,0,0,1,15,22Zm12.14331,8.42237a7.93928,7.93928,0,0,1,5.82031-9.14014C32.98242,21.51973,33,21.7577,33,22A9.00679,9.00679,0,0,1,27.14331,30.42238Z" />
    </symbol>

    <symbol id="FR" viewBox="0 0 34 48">
        <path
            d="M17.42993.21a.54506.54506,0,0,0-.85986,0C13.92993,3.53,0,22.46,0,30.97a17,17,0,1,0,34,0C34,22.46,20.07007,3.53,17.42993.21ZM17,43a7.98509,7.98509,0,0,1-8-7.97c0-3.98,6.55005-12.38,7.8-13.93a.25376.25376,0,0,1,.3999,0c1.24,1.55,7.8,9.95,7.8,13.93A7.985,7.985,0,0,1,17,43Z" />
    </symbol>

    <symbol id="FF" viewBox="0 0 48 48.00002">
        <path
            d="M1.5,9H12.87891L9.43945,12.43947a1.49984,1.49984,0,1,0,2.1211,2.12109l6-6a1.49946,1.49946,0,0,0,0-2.12109l-6-6a1.49984,1.49984,0,1,0-2.1211,2.12109L12.87891,6H1.5a1.5,1.5,0,0,0,0,3Z" />
        <path
            d="M47.82007,12,33.15991.06a.24307.24307,0,0,0-.31982,0L18.17993,12A.52777.52777,0,0,0,18,12.38V30.09a8.73356,8.73356,0,0,1,3.29,1.15A4.63739,4.63739,0,0,0,24,32a4.62642,4.62642,0,0,0,2.7-.76A8.64428,8.64428,0,0,1,31.33008,30,8.60316,8.60316,0,0,1,35.95,31.24a5.22951,5.22951,0,0,0,5.43005,0A8.603,8.603,0,0,1,46,30a9.42933,9.42933,0,0,1,2,.2V12.38A.52777.52777,0,0,0,47.82007,12Z" />
        <path
            d="M46,42a8.603,8.603,0,0,0-4.62,1.24,5.22951,5.22951,0,0,1-5.43005,0A8.60316,8.60316,0,0,0,31.33008,42,8.64428,8.64428,0,0,0,26.7,43.24,4.62642,4.62642,0,0,1,24,44a4.63739,4.63739,0,0,1-2.71-.76A8.67344,8.67344,0,0,0,16.65991,42,8.60316,8.60316,0,0,0,12.04,43.24a4.68387,4.68387,0,0,1-2.71.76A4.68367,4.68367,0,0,1,6.62,43.24,8.603,8.603,0,0,0,2,42a2,2,0,0,0,0,4,4.68319,4.68319,0,0,1,2.71.76A8.60355,8.60355,0,0,0,9.33008,48,8.60325,8.60325,0,0,0,13.95,46.76a4.68407,4.68407,0,0,1,2.71-.76,4.66062,4.66062,0,0,1,2.71009.76A8.64416,8.64416,0,0,0,24,48a8.63212,8.63212,0,0,0,4.62-1.24,5.21166,5.21166,0,0,1,5.42,0,9.24531,9.24531,0,0,0,9.25,0A4.66018,4.66018,0,0,1,46,46a2,2,0,0,0,0-4Z" />
        <path
            d="M46,34a8.58937,8.58937,0,0,0-4.625,1.24414,5.24115,5.24115,0,0,1-5.42285,0A8.59052,8.59052,0,0,0,31.32617,34a8.58149,8.58149,0,0,0-4.62305,1.24414A4.69239,4.69239,0,0,1,23.99512,36a4.6958,4.6958,0,0,1-2.709-.75586A8.58937,8.58937,0,0,0,16.66113,34a8.58822,8.58822,0,0,0-4.624,1.24414A4.69245,4.69245,0,0,1,9.3291,36a4.69019,4.69019,0,0,1-2.70605-.75538A8.57668,8.57668,0,0,0,2,34a2,2,0,0,0,0,4,4.69133,4.69133,0,0,1,2.707.75585A8.5803,8.5803,0,0,0,9.3291,40a8.58818,8.58818,0,0,0,4.624-1.24415A4.69245,4.69245,0,0,1,16.66113,38a4.69578,4.69578,0,0,1,2.709.75585A8.58935,8.58935,0,0,0,23.99512,40a8.58339,8.58339,0,0,0,4.624-1.24463,5.23564,5.23564,0,0,1,5.41895.00048,9.22036,9.22036,0,0,0,9.251,0A4.70244,4.70244,0,0,1,46,38a2,2,0,0,0,0-4Z" />
    </symbol>

    <symbol id="FL" viewBox="0 0 48 48.00002">
        <path
            d="M47.82007,12,33.15991.06a.24307.24307,0,0,0-.31982,0L18.17993,12A.52777.52777,0,0,0,18,12.38V30.09a8.73356,8.73356,0,0,1,3.29,1.15A4.63739,4.63739,0,0,0,24,32a4.62642,4.62642,0,0,0,2.7-.76A8.64428,8.64428,0,0,1,31.33008,30,8.60316,8.60316,0,0,1,35.95,31.24a5.22951,5.22951,0,0,0,5.43005,0A8.603,8.603,0,0,1,46,30a9.42933,9.42933,0,0,1,2,.2V12.38A.52777.52777,0,0,0,47.82007,12Z" />
        <path
            d="M46,42a8.603,8.603,0,0,0-4.62,1.24,5.22951,5.22951,0,0,1-5.43005,0A8.60316,8.60316,0,0,0,31.33008,42,8.64428,8.64428,0,0,0,26.7,43.24,4.62642,4.62642,0,0,1,24,44a4.63739,4.63739,0,0,1-2.71-.76A8.67344,8.67344,0,0,0,16.65991,42,8.60316,8.60316,0,0,0,12.04,43.24a4.68387,4.68387,0,0,1-2.71.76A4.68367,4.68367,0,0,1,6.62,43.24,8.603,8.603,0,0,0,2,42a2,2,0,0,0,0,4,4.68319,4.68319,0,0,1,2.71.76A8.60355,8.60355,0,0,0,9.33008,48,8.60325,8.60325,0,0,0,13.95,46.76a4.68407,4.68407,0,0,1,2.71-.76,4.66062,4.66062,0,0,1,2.71009.76A8.64416,8.64416,0,0,0,24,48a8.63212,8.63212,0,0,0,4.62-1.24,5.21166,5.21166,0,0,1,5.42,0,9.24531,9.24531,0,0,0,9.25,0A4.66018,4.66018,0,0,1,46,46a2,2,0,0,0,0-4Z" />
        <path
            d="M46,34a8.58937,8.58937,0,0,0-4.625,1.24414,5.24115,5.24115,0,0,1-5.42285,0A8.59052,8.59052,0,0,0,31.32617,34a8.58149,8.58149,0,0,0-4.62305,1.24414A4.69239,4.69239,0,0,1,23.99512,36a4.6958,4.6958,0,0,1-2.709-.75586A8.58937,8.58937,0,0,0,16.66113,34a8.58822,8.58822,0,0,0-4.624,1.24414A4.69245,4.69245,0,0,1,9.3291,36a4.69019,4.69019,0,0,1-2.70605-.75538A8.57668,8.57668,0,0,0,2,34a2,2,0,0,0,0,4,4.69133,4.69133,0,0,1,2.707.75585A8.5803,8.5803,0,0,0,9.3291,40a8.58818,8.58818,0,0,0,4.624-1.24415A4.69245,4.69245,0,0,1,16.66113,38a4.69578,4.69578,0,0,1,2.709.75585A8.58935,8.58935,0,0,0,23.99512,40a8.58339,8.58339,0,0,0,4.624-1.24463,5.23564,5.23564,0,0,1,5.41895.00048,9.22036,9.22036,0,0,0,9.251,0A4.70244,4.70244,0,0,1,46,38a2,2,0,0,0,0-4Z" />
    </symbol>

    <symbol id="HT" viewBox="0 0 34 48">
        <path
            d="M16,6.5a6.5,6.5,0,0,0-13,0V31.57715A9.49838,9.49838,0,1,0,19,38.5a9.44953,9.44953,0,0,0-3-6.92285ZM9.5,45A6.49635,6.49635,0,0,1,5.439,33.43018L6,32.98V6.5a3.5,3.5,0,0,1,7,0V32.98l.561.4502A6.49635,6.49635,0,0,1,9.5,45Z" />
        <path d="M11,34.79663V8.5a1.5,1.5,0,0,0-3,0V34.79663a4,4,0,1,0,3,0Z" />
        <path
            d="M32.5,10.00006H28v-4.5a1.5,1.5,0,1,0-3,0v4.5H20.5a1.5,1.5,0,0,0,0,3H25V17.5a1.5,1.5,0,0,0,3,0V13.00006h4.5a1.5,1.5,0,0,0,0-3Z" />
    </symbol>

    <symbol id="IN" viewBox="0 0 47.99176 47.98908">
        <path
            d="M19.74654,21.09992l1.30665,4.78418a1.50033,1.50033,0,0,0,2.89453-.791l-1.5-5.48877a1.50113,1.50113,0,0,0-.86621-.9873L17.0007,16.69342V13.16156l3.72241-2.047a1.50181,1.50181,0,0,0,.76074-1.08985l.5-3.30029a1.50031,1.50031,0,0,0-2.9668-.44922l-.38867,2.56738L16.566,9.97687a4.99787,4.99787,0,0,0-1.08716-1.55969l3.34192-6.20642A1.49955,1.49955,0,1,0,16.18014.78888l-3.38745,6.291a4.97312,4.97312,0,0,0-.792-.07984,4.97244,4.97244,0,0,0-.79249.0799L7.82076.78888A1.49955,1.49955,0,1,0,5.18014,2.21076l3.342,6.20672A5.00176,5.00176,0,0,0,7.43527,9.97712L5.37252,8.84259,4.98385,6.27521a1.50031,1.50031,0,0,0-2.9668.44922l.5,3.30029a1.50186,1.50186,0,0,0,.76074,1.08985L7.0007,13.16193v3.53125L2.4194,18.617a1.50111,1.50111,0,0,0-.86621.9873l-1.5,5.48877a1.50033,1.50033,0,1,0,2.89453.791l1.30664-4.78418L7.0007,19.94678v.05328a5,5,0,1,0,10,0v-.053Z" />
        <path
            d="M47.42819,27.86213a1.49956,1.49956,0,0,0-2.1084.23583l-1.6211,2.02881-2.353-.0487a4.99851,4.99851,0,0,0-.16114-1.89356l5.99756-3.70422a1.50007,1.50007,0,0,0-1.57617-2.55274l-6.07935,3.75477A3.97293,3.97293,0,0,0,38.154,24.89l.21264-7.14166a1.49968,1.49968,0,1,0-2.998-.08887l-.20972,7.046a5.00038,5.00038,0,0,0-1.7207.80713l-1.219-2.01374.94629-2.418a1.49975,1.49975,0,1,0-2.793-1.09375L29.15572,23.095a1.49681,1.49681,0,0,0,.11329,1.32373l2.20044,3.63464-1.76539,3.0578-4.92919-.62408a1.50049,1.50049,0,0,0-1.24415.42285L19.4819,34.92316A1.49985,1.49985,0,1,0,21.59322,37.054l3.53028-3.49854,2.95337.374-.02661.046a5,5,0,0,0,1.8302,6.83008v.00006a5.00019,5.00019,0,0,0,6.8302-1.83014l.02661-.04621,1.80029,2.37134-1.26367,4.80664a1.4995,1.4995,0,1,0,2.90039.7627l1.45019-5.51319a1.4962,1.4962,0,0,0-.25585-1.28857l-3.0044-3.95685,1.76563-3.058,4.24755.08813.03125.00049a1.50031,1.50031,0,0,0,1.17188-.564l2.083-2.60791A1.49988,1.49988,0,0,0,47.42819,27.86213Z" />
    </symbol>

    <symbol id="LS" viewBox="0 0 47.99996 48">
        <path
            d="M47.61052,19.70557A4.2332,4.2332,0,0,0,45.214,17.31641a4.64835,4.64835,0,0,0-3.46972.00976,1.36942,1.36942,0,0,0-.57691,1.92267,1.47207,1.47207,0,0,0,1.70423.73273,2.27445,2.27445,0,0,1,1.19689.1073,1.40636,1.40636,0,0,1,.77051.76416,2.23522,2.23522,0,0,1-1.249,2.8916,3.21,3.21,0,0,1-2.47656.01123,3.09686,3.09686,0,0,1-1.69239-1.72119L32.85447,7.85645a1.4996,1.4996,0,1,0-2.709,1.2871L36.68083,23.252a6.01727,6.01727,0,0,0,3.28711,3.27637A6.18355,6.18355,0,0,0,42.33317,27a6.27371,6.27371,0,0,0,2.41016-.48584A5.23882,5.23882,0,0,0,47.61052,19.70557Z" />
        <path
            d="M21.05,7.33a2.24486,2.24486,0,0,0-4.1,0L.19554,44.84a2.24625,2.24625,0,0,0,2.06,3.16H35.74443a2.25072,2.25072,0,0,0,2.06-3.17Z" />
        <path
            d="M37.1425,9.51447A1,1,0,0,0,38,10h5a1,1,0,0,0,.85749-.48553l2-4a1,1,0,0,0,0-1.02894l-2-4A1,1,0,0,0,43,0H38a1,1,0,0,0-.85748.48553l-2,4a1,1,0,0,0,0,1.02894Z" />
    </symbol>

    <symbol id="AV" viewBox="0 0 47.99996 48">
        <path
            d="M36.19072,7.33313v.00012a1.47433,1.47433,0,0,0,1.94207.48792L39,7.35156V8.5a1.5,1.5,0,0,0,3,0V7.35156l.86719.46961a1.47434,1.47434,0,0,0,1.94208-.48792V7.33313A1.289,1.289,0,0,0,44.28892,5.512L43.34343,5l.94549-.512a1.289,1.289,0,0,0,.52033-1.82117V2.66675a1.47434,1.47434,0,0,0-1.94208-.48792L42,2.64844V1.5a1.5,1.5,0,0,0-3,0V2.64844l-.86719-.46961a1.47433,1.47433,0,0,0-1.94207.48792v.00012A1.289,1.289,0,0,0,36.711,4.488l.9455.512-.9455.512A1.289,1.289,0,0,0,36.19072,7.33313Z" />
        <path
            d="M47.61052,19.70557A4.2332,4.2332,0,0,0,45.214,17.31641a4.64835,4.64835,0,0,0-3.46972.00976,1.36935,1.36935,0,0,0-.57691,1.92261,1.472,1.472,0,0,0,1.70423.73279,2.27445,2.27445,0,0,1,1.19689.1073,1.40636,1.40636,0,0,1,.77051.76416,2.23522,2.23522,0,0,1-1.249,2.8916,3.21,3.21,0,0,1-2.47656.01123,3.09686,3.09686,0,0,1-1.69239-1.72119L32.85447,7.85645a1.4996,1.4996,0,1,0-2.709,1.2871L36.68083,23.252a6.01727,6.01727,0,0,0,3.28711,3.27637A6.18355,6.18355,0,0,0,42.33317,27a6.27371,6.27371,0,0,0,2.41016-.48584A5.23882,5.23882,0,0,0,47.61052,19.70557Z" />
        <path
            d="M21.05,7.33008a2.24482,2.24482,0,0,0-4.1,0L.19554,44.84009A2.24623,2.24623,0,0,0,2.25554,48H35.74443a2.2507,2.2507,0,0,0,2.06-3.16992ZM15,22l4-9,4,9Z" />
    </symbol>

    <symbol id="SS" viewBox="0 0 48 48">
        <path
            d="M46,42a8.603,8.603,0,0,0-4.62,1.24,5.22951,5.22951,0,0,1-5.43005,0A8.60316,8.60316,0,0,0,31.33008,42,8.64428,8.64428,0,0,0,26.7,43.24,4.62642,4.62642,0,0,1,24,44a4.63739,4.63739,0,0,1-2.71-.76A8.67344,8.67344,0,0,0,16.65991,42,8.60323,8.60323,0,0,0,12.04,43.24,4.68345,4.68345,0,0,1,9.33,44a4.68375,4.68375,0,0,1-2.71-.76A8.60314,8.60314,0,0,0,2,42a2,2,0,0,0,0,4,4.68375,4.68375,0,0,1,2.71.76A8.603,8.603,0,0,0,9.33,48a8.60331,8.60331,0,0,0,4.62-1.24,4.68352,4.68352,0,0,1,2.7099-.76,4.6607,4.6607,0,0,1,2.71009.76A8.64407,8.64407,0,0,0,24,48a8.632,8.632,0,0,0,4.62-1.24,5.21166,5.21166,0,0,1,5.42,0,9.24531,9.24531,0,0,0,9.25,0A4.66026,4.66026,0,0,1,46,46a2,2,0,0,0,0-4Z" />
        <path
            d="M46,34a8.603,8.603,0,0,0-4.62,1.24,5.22951,5.22951,0,0,1-5.43005,0A8.60316,8.60316,0,0,0,31.33008,34,8.64428,8.64428,0,0,0,26.7,35.24,4.62642,4.62642,0,0,1,24,36a4.63739,4.63739,0,0,1-2.71-.76A8.67344,8.67344,0,0,0,16.65991,34,8.60323,8.60323,0,0,0,12.04,35.24,4.68345,4.68345,0,0,1,9.33,36a4.68375,4.68375,0,0,1-2.71-.76A8.60314,8.60314,0,0,0,2,34a2,2,0,0,0,0,4,4.68375,4.68375,0,0,1,2.71.76A8.603,8.603,0,0,0,9.33,40a8.60331,8.60331,0,0,0,4.62-1.24,4.68352,4.68352,0,0,1,2.7099-.76,4.6607,4.6607,0,0,1,2.71009.76A8.64407,8.64407,0,0,0,24,40a8.632,8.632,0,0,0,4.62-1.24,5.21166,5.21166,0,0,1,5.42,0,9.24531,9.24531,0,0,0,9.25,0A4.66026,4.66026,0,0,1,46,38a2,2,0,0,0,0-4Z" />
        <path
            d="M8,22H36.5a7.51582,7.51582,0,0,0,7.33008-5.9A7.62466,7.62466,0,0,0,44,14.5,7.50272,7.50272,0,0,0,36.5,7a7.37787,7.37787,0,0,0-2.71.51l-.0022.001a9.49713,9.49713,0,0,0-18.784,1.91314A4.99042,4.99042,0,0,0,8,14a4,4,0,0,0,0,8Z" />
        <path
            d="M10.9881,24.51776,7.52362,27.98224a1.76777,1.76777,0,0,0,2.5,2.5l3.46448-3.46448a1.76777,1.76777,0,0,0-2.5-2.5Z" />
        <path
            d="M22.98584,24.51776l-3.4646,3.46448a1.76777,1.76777,0,0,0,2.5,2.5l3.4646-3.46448a1.76777,1.76777,0,0,0-2.5-2.5Z" />
        <path
            d="M34.98218,24.51776l-3.46436,3.46448a1.76777,1.76777,0,0,0,2.5,2.5l3.46436-3.46448a1.76777,1.76777,0,0,0-2.5-2.5Z" />
    </symbol>

    <symbol id="ST" viewBox="0 0 47.97998 48">
        <path
            d="M38.98,9.01a8.73173,8.73173,0,0,0-3.16.58008l-.01068.00488a11.49,11.49,0,0,0-22.82184,1.75659,5.97663,5.97663,0,0,0-7.9112,6.68994L5.07,18.04A3.81041,3.81041,0,0,0,4.48,18a4.5,4.5,0,0,0,0,9h34.5a9.00311,9.00311,0,0,0,8.83-7.24A9.29694,9.29694,0,0,0,47.98,18,8.99222,8.99222,0,0,0,38.98,9.01Z" />
        <path
            d="M28.48,37H22.18652L25.752,31.29492A1.49994,1.49994,0,1,0,23.208,29.70508l-5,8A1.49972,1.49972,0,0,0,19.48,40h6.29346L22.208,45.70508A1.49994,1.49994,0,1,0,24.752,47.29492l5-8A1.49972,1.49972,0,0,0,28.48,37Z" />
    </symbol>

    <symbol id="AC" viewBox="0 0 48.00126 43.00295">
        <path
            d="M27.24062,26.31294a7.9518,7.9518,0,0,1-6.48,0l-7.62,12.82a.98608.98608,0,0,0,.4,1.39,23.383,23.383,0,0,0,20.91992.02.986.986,0,0,0,.4-1.39Z" />
        <path
            d="M18.63063,13.083l-7.13-12.56a.98313.98313,0,0,0-1.39-.37,22.47933,22.47933,0,0,0-10.11,17.8,1.01027,1.01027,0,0,0,1.01,1.05h14.99A7.97018,7.97018,0,0,1,18.63063,13.083Z" />
        <path
            d="M37.87062.153a1.0003,1.0003,0,0,0-1.39.36l-7.12,12.56a7.98457,7.98457,0,0,1,2.64,5.93h15a1.00829,1.00829,0,0,0,1-1.05A22.41574,22.41574,0,0,0,37.87062.153Z" />
        <path
            d="M22.52578,23.778a4.8487,4.8487,0,0,0,1.47485.225,5.108,5.108,0,0,0,1.4624-.21247,5.01421,5.01421,0,1,0-2.93725-.01251Z" />
    </symbol>

    <symbol id="TS" viewBox="0 0 48 48">
        <path
            d="M47.9,19.4798l-7.76-5.37a.28017.28017,0,0,0-.28,0l-7.76,5.37a.20418.20418,0,0,0-.1.16v6.45c-.21-.01-.43994-.02-.66992-.02a8.67353,8.67353,0,0,0-4.63013,1.24,4.63731,4.63731,0,0,1-2.70337.75983A6.23679,6.23679,0,0,1,18,22.06982a5.71418,5.71418,0,0,1,5.5-5.89453,5.14209,5.14209,0,0,1,2.52734.65821,2,2,0,1,0,1.94532-3.49512A9.22272,9.22272,0,0,0,23.5,12.17529,9.71419,9.71419,0,0,0,14,22.06982a10.26176,10.26176,0,0,0,9.97852,9.99884l.01147.00116.006-.00024.004.00024.00586-.00061A8.67425,8.67425,0,0,0,28.62,30.82983a4.63777,4.63777,0,0,1,2.71008-.76,4.70172,4.70172,0,0,1,2.69995.75,8.39124,8.39124,0,0,0,3.97,1.23c.21.01.42993.02.65991.02a8.67344,8.67344,0,0,0,4.63013-1.24,4.907,4.907,0,0,1,1.71-.68,2.90484,2.90484,0,0,1,.32751-.04962c.15455-.00873.30726-.01868.47254-.02039a1.27223,1.27223,0,0,1,.2-.01,9.42927,9.42927,0,0,1,2,.2v-10.63A.20418.20418,0,0,0,47.9,19.4798Z" />
        <path
            d="M46,42a8.58937,8.58937,0,0,0-4.625,1.24414,5.24115,5.24115,0,0,1-5.42285,0A8.59052,8.59052,0,0,0,31.32617,42a8.58149,8.58149,0,0,0-4.62305,1.24414A4.69232,4.69232,0,0,1,23.99512,44a4.69572,4.69572,0,0,1-2.709-.75586A8.58937,8.58937,0,0,0,16.66113,42a8.58822,8.58822,0,0,0-4.624,1.24414A4.69237,4.69237,0,0,1,9.3291,44a4.69019,4.69019,0,0,1-2.70605-.75537A8.57658,8.57658,0,0,0,2,42a2,2,0,0,0,0,4,4.69126,4.69126,0,0,1,2.707.75586A8.58031,8.58031,0,0,0,9.3291,48a8.58819,8.58819,0,0,0,4.624-1.24414A4.69237,4.69237,0,0,1,16.66113,46a4.6957,4.6957,0,0,1,2.709.75586A8.58937,8.58937,0,0,0,23.99512,48a8.5833,8.5833,0,0,0,4.624-1.24463,5.23561,5.23561,0,0,1,5.41895.00049,9.22042,9.22042,0,0,0,9.251,0A4.70237,4.70237,0,0,1,46,46a2,2,0,0,0,0-4Z" />
        <path
            d="M46,34a8.58937,8.58937,0,0,0-4.625,1.24414,5.24115,5.24115,0,0,1-5.42285,0A8.59052,8.59052,0,0,0,31.32617,34a8.58149,8.58149,0,0,0-4.62305,1.24414A4.69232,4.69232,0,0,1,23.99512,36a4.69572,4.69572,0,0,1-2.709-.75586A8.58937,8.58937,0,0,0,16.66113,34a8.58822,8.58822,0,0,0-4.624,1.24414A4.69237,4.69237,0,0,1,9.3291,36a4.69019,4.69019,0,0,1-2.70605-.75537A8.57658,8.57658,0,0,0,2,34a2,2,0,0,0,0,4,4.69126,4.69126,0,0,1,2.707.75586A8.58031,8.58031,0,0,0,9.3291,40a8.58819,8.58819,0,0,0,4.624-1.24414A4.69237,4.69237,0,0,1,16.66113,38a4.6957,4.6957,0,0,1,2.709.75586A8.58937,8.58937,0,0,0,23.99512,40a8.5833,8.5833,0,0,0,4.624-1.24463,5.23561,5.23561,0,0,1,5.41895.00049,9.22042,9.22042,0,0,0,9.251,0A4.70237,4.70237,0,0,1,46,38a2,2,0,0,0,0-4Z" />
        <path
            d="M4.10156,31.07031a2.0009,2.0009,0,0,0,1.77051-2.92773A16.50712,16.50712,0,0,1,20.5,4,16.58527,16.58527,0,0,1,31.64844,8.544,1.99994,1.99994,0,1,0,34.35156,5.5957,20.57082,20.57082,0,0,0,20.5,0,20.50832,20.50832,0,0,0,2.32715,29.99707,2.001,2.001,0,0,0,4.10156,31.07031Z" />
    </symbol>

    <symbol id="VO" viewBox="0 0 48 48">
        <path
            d="M47.85445,47.15717,29.28573,29.588a1.94066,1.94066,0,0,0-2.47593-.25324,4.87219,4.87219,0,0,1-5.6196,0,1.94066,1.94066,0,0,0-2.47593.25324L.14555,47.15717A.49375.49375,0,0,0,.49461,48H47.50539A.49375.49375,0,0,0,47.85445,47.15717Z" />
        <path
            d="M25,24.5a1.5,1.5,0,0,0,3,0l-.002-8.05a6.1459,6.1459,0,0,1,5.832-6.44531,4.617,4.617,0,0,1,4.84179,4.38037,3.3942,3.3942,0,0,1-3.2207,3.55908,2.39845,2.39845,0,0,1-2.53222-2.2915,1.49994,1.49994,0,0,0-2.9961.15039,5.42365,5.42365,0,0,0,5.67871,5.13721A6.393,6.393,0,0,0,41.668,14.23517a7.615,7.615,0,0,0-7.98828-7.22656A9.14287,9.14287,0,0,0,25,16.52472Z" />
        <path
            d="M14.15916,11.87667a1.49995,1.49995,0,0,0,.14928-2.9961,2.468,2.468,0,0,1-2.3275-2.59131A3.44779,3.44779,0,0,1,15.5861,3.00362a4.71689,4.71689,0,0,1,4.42818,5.00781V24.5a1.489,1.489,0,1,0,2.978,0L22.99031,8.08614A7.69107,7.69107,0,0,0,15.73539.00752,6.43359,6.43359,0,0,0,9.00684,6.13985,5.46206,5.46206,0,0,0,14.15916,11.87667Z" />
    </symbol>

    <symbol id="windDirection" viewBox="0 0 30 30">
        <path
            d="M3.74,14.5c0-2.04,0.51-3.93,1.52-5.66s2.38-3.1,4.11-4.11s3.61-1.51,5.64-1.51c1.52,0,2.98,0.3,4.37,0.89
        s2.58,1.4,3.59,2.4s1.81,2.2,2.4,3.6s0.89,2.85,0.89,4.39c0,1.52-0.3,2.98-0.89,4.37s-1.4,2.59-2.4,3.59s-2.2,1.8-3.59,2.39
        s-2.84,0.89-4.37,0.89c-1.53,0-3-0.3-4.39-0.89s-2.59-1.4-3.6-2.4s-1.8-2.2-2.4-3.58S3.74,16.03,3.74,14.5z M6.22,14.5
        c0,2.37,0.86,4.43,2.59,6.18c1.73,1.73,3.79,2.59,6.2,2.59c1.58,0,3.05-0.39,4.39-1.18s2.42-1.85,3.21-3.2s1.19-2.81,1.19-4.39
        s-0.4-3.05-1.19-4.4s-1.86-2.42-3.21-3.21s-2.81-1.18-4.39-1.18s-3.05,0.39-4.39,1.18S8.2,8.75,7.4,10.1S6.22,12.92,6.22,14.5z
        M11.11,20.35l3.75-13.11c0.01-0.1,0.06-0.15,0.15-0.15s0.14,0.05,0.15,0.15l3.74,13.11c0.04,0.11,0.03,0.19-0.02,0.25
        s-0.13,0.06-0.24,0l-3.47-1.3c-0.1-0.04-0.2-0.04-0.29,0l-3.5,1.3c-0.1,0.06-0.17,0.06-0.21,0S11.09,20.45,11.11,20.35z" />
    </symbol>

    <symbol id="pressure" viewBox="0 0 30 30">
        <path d="M7.69,13.2c0-0.99,0.19-1.94,0.58-2.85c0.39-0.91,0.91-1.68,1.57-2.33s1.44-1.17,2.34-1.56c0.9-0.39,1.85-0.58,2.84-0.58
        c0.99,0,1.94,0.19,2.85,0.58c0.9,0.39,1.68,0.91,2.33,1.56c0.65,0.65,1.17,1.43,1.56,2.33s0.58,1.85,0.58,2.85
        c0,1.62-0.48,3.06-1.44,4.34c-0.96,1.27-2.2,2.14-3.71,2.61v3.29h-4.24v-3.25c-1.54-0.45-2.81-1.32-3.79-2.61S7.69,14.83,7.69,13.2z
        M9.3,13.2c0,1.55,0.56,2.88,1.69,3.99c1.11,1.12,2.45,1.68,4.02,1.68c1.03,0,1.99-0.25,2.86-0.76c0.88-0.51,1.57-1.2,2.09-2.07
        c0.51-0.87,0.77-1.82,0.77-2.85c0-0.77-0.15-1.5-0.45-2.21s-0.71-1.31-1.22-1.82c-0.51-0.51-1.12-0.92-1.83-1.22
        c-0.71-0.3-1.44-0.45-2.21-0.45c-0.77,0-1.5,0.15-2.21,0.45s-1.31,0.71-1.82,1.22c-0.51,0.51-0.92,1.12-1.22,1.82
        C9.45,11.7,9.3,12.43,9.3,13.2z M9.88,13.56v-0.72h2.17v0.72H9.88z M10.97,10.02l0.52-0.52l1.52,1.52l-0.52,0.53L10.97,10.02z
        M13.5,14.95c0-0.42,0.15-0.78,0.44-1.09c0.29-0.31,0.65-0.47,1.06-0.48l2.73-4.49l0.66,0.35l-2.02,4.83
        c0.18,0.25,0.26,0.54,0.26,0.88c0,0.44-0.15,0.81-0.46,1.11c-0.31,0.3-0.68,0.45-1.12,0.45c-0.43,0-0.8-0.15-1.1-0.45
        C13.65,15.76,13.5,15.39,13.5,14.95z M14.81,10.28V8.12h0.69v2.17H14.81z M17.75,13.55v-0.74h2.17v0.74H17.75z" />
    </symbol>

    <symbol id="humidity" viewBox="0 0 30 30">
        <path d="M7.56,17.19c0-0.88,0.24-1.89,0.72-3.03s1.1-2.25,1.86-3.31c1.56-2.06,2.92-3.62,4.06-4.67l0.75-0.72
        c0.25,0.26,0.53,0.5,0.83,0.72c0.41,0.42,1.04,1.11,1.88,2.09s1.57,1.85,2.17,2.65c0.71,1.01,1.32,2.1,1.81,3.25
        s0.74,2.16,0.74,3.03c0,1-0.19,1.95-0.58,2.86c-0.39,0.91-0.91,1.7-1.57,2.36c-0.66,0.66-1.45,1.19-2.37,1.58
        c-0.92,0.39-1.89,0.59-2.91,0.59c-1,0-1.95-0.19-2.86-0.57c-0.91-0.38-1.7-0.89-2.36-1.55c-0.66-0.65-1.19-1.44-1.58-2.35
        S7.56,18.23,7.56,17.19z M9.82,14.26c0,0.83,0.17,1.49,0.52,1.99c0.35,0.49,0.88,0.74,1.59,0.74c0.72,0,1.25-0.25,1.61-0.74
        c0.35-0.49,0.53-1.15,0.54-1.99c-0.01-0.84-0.19-1.5-0.54-2c-0.35-0.49-0.89-0.74-1.61-0.74c-0.71,0-1.24,0.25-1.59,0.74
        C9.99,12.76,9.82,13.42,9.82,14.26z M11.39,14.26c0-0.15,0-0.27,0-0.35s0.01-0.19,0.02-0.33c0.01-0.14,0.02-0.25,0.05-0.32
        s0.05-0.16,0.09-0.24c0.04-0.08,0.09-0.15,0.15-0.18c0.07-0.04,0.14-0.06,0.23-0.06c0.14,0,0.25,0.04,0.33,0.12s0.14,0.21,0.17,0.38
        c0.03,0.18,0.05,0.32,0.06,0.45s0.01,0.3,0.01,0.52c0,0.23,0,0.4-0.01,0.52c-0.01,0.12-0.03,0.27-0.06,0.45
        c-0.03,0.17-0.09,0.3-0.17,0.38s-0.19,0.12-0.33,0.12c-0.09,0-0.16-0.02-0.23-0.06c-0.07-0.04-0.12-0.1-0.15-0.18
        c-0.04-0.08-0.07-0.17-0.09-0.24c-0.02-0.08-0.04-0.19-0.05-0.32c-0.01-0.14-0.02-0.25-0.02-0.32S11.39,14.41,11.39,14.26z
        M11.98,22.01h1.32l4.99-10.74h-1.35L11.98,22.01z M16.28,19.02c0.01,0.84,0.2,1.5,0.55,2c0.35,0.49,0.89,0.74,1.6,0.74
        c0.72,0,1.25-0.25,1.6-0.74c0.35-0.49,0.52-1.16,0.53-2c-0.01-0.84-0.18-1.5-0.53-1.99c-0.35-0.49-0.88-0.74-1.6-0.74
        c-0.71,0-1.25,0.25-1.6,0.74C16.47,17.52,16.29,18.18,16.28,19.02z M17.85,19.02c0-0.23,0-0.4,0.01-0.52
        c0.01-0.12,0.03-0.27,0.06-0.45s0.09-0.3,0.17-0.38s0.19-0.12,0.33-0.12c0.09,0,0.17,0.02,0.24,0.06c0.07,0.04,0.12,0.1,0.16,0.19
        c0.04,0.09,0.07,0.17,0.1,0.24s0.04,0.18,0.05,0.32l0.01,0.32l0,0.34c0,0.16,0,0.28,0,0.35l-0.01,0.32l-0.05,0.32l-0.1,0.24
        l-0.16,0.19l-0.24,0.06c-0.14,0-0.25-0.04-0.33-0.12s-0.14-0.21-0.17-0.38c-0.03-0.18-0.05-0.33-0.06-0.45S17.85,19.25,17.85,19.02z
        " />
    </symbol>

    <symbol id="tempHigh" viewBox="0 0 30 30">
        <path d="M9.91,19.56c0-0.85,0.2-1.64,0.59-2.38s0.94-1.35,1.65-1.84V5.42c0-0.8,0.27-1.48,0.82-2.03S14.2,2.55,15,2.55
        c0.81,0,1.49,0.28,2.04,0.83c0.55,0.56,0.83,1.23,0.83,2.03v9.92c0.71,0.49,1.25,1.11,1.64,1.84s0.58,1.53,0.58,2.38
        c0,0.92-0.23,1.78-0.68,2.56s-1.07,1.4-1.85,1.85s-1.63,0.68-2.56,0.68c-0.92,0-1.77-0.23-2.55-0.68s-1.4-1.07-1.86-1.85
        S9.91,20.48,9.91,19.56z M11.67,19.56c0,0.93,0.33,1.73,0.98,2.39c0.65,0.66,1.44,0.99,2.36,0.99c0.93,0,1.73-0.33,2.4-1
        s1.01-1.46,1.01-2.37c0-0.62-0.16-1.2-0.48-1.73c-0.32-0.53-0.76-0.94-1.32-1.23l-0.28-0.14c-0.1-0.04-0.15-0.14-0.15-0.29V5.42
        c0-0.32-0.11-0.59-0.34-0.81C15.62,4.4,15.34,4.29,15,4.29c-0.32,0-0.6,0.11-0.83,0.32c-0.23,0.21-0.34,0.48-0.34,0.81v10.74
        c0,0.15-0.05,0.25-0.14,0.29l-0.27,0.14c-0.55,0.29-0.98,0.7-1.29,1.23C11.82,18.35,11.67,18.92,11.67,19.56z M12.45,19.56
        c0,0.71,0.24,1.32,0.73,1.82s1.07,0.75,1.76,0.75s1.28-0.25,1.79-0.75c0.51-0.5,0.76-1.11,0.76-1.81c0-0.63-0.22-1.19-0.65-1.67
        c-0.43-0.48-0.96-0.77-1.58-0.85V9.69c0-0.06-0.03-0.13-0.1-0.19c-0.07-0.07-0.14-0.1-0.22-0.1c-0.09,0-0.16,0.03-0.21,0.08
        c-0.05,0.06-0.08,0.12-0.08,0.21v7.34c-0.61,0.09-1.13,0.37-1.56,0.85C12.66,18.37,12.45,18.92,12.45,19.56z" />
    </symbol>

    <symbol id="tempLow" viewBox="0 0 30 30">
        <path d="M9.91,19.56c0-0.85,0.2-1.64,0.59-2.38s0.94-1.35,1.65-1.84V5.42c0-0.8,0.27-1.48,0.82-2.03S14.2,2.55,15,2.55
        c0.81,0,1.49,0.28,2.04,0.83c0.55,0.56,0.83,1.23,0.83,2.03v9.92c0.71,0.49,1.25,1.11,1.64,1.84s0.58,1.53,0.58,2.38
        c0,0.92-0.23,1.78-0.68,2.56s-1.07,1.4-1.85,1.85s-1.63,0.68-2.56,0.68c-0.92,0-1.77-0.23-2.55-0.68s-1.4-1.07-1.86-1.85
        S9.91,20.48,9.91,19.56z M11.67,19.56c0,0.93,0.33,1.73,0.98,2.39c0.65,0.66,1.44,0.99,2.36,0.99c0.93,0,1.73-0.33,2.4-1
        s1.01-1.46,1.01-2.37c0-0.62-0.16-1.2-0.48-1.73c-0.32-0.53-0.76-0.94-1.32-1.23l-0.28-0.14c-0.1-0.04-0.15-0.14-0.15-0.29V5.42
        c0-0.32-0.11-0.59-0.34-0.81C15.62,4.4,15.34,4.29,15,4.29c-0.32,0-0.6,0.11-0.83,0.32c-0.23,0.21-0.34,0.48-0.34,0.81v10.74
        c0,0.15-0.05,0.25-0.14,0.29l-0.27,0.14c-0.55,0.29-0.98,0.7-1.29,1.23C11.82,18.35,11.67,18.92,11.67,19.56z" />
    </symbol>

    <symbol id="windChill" viewBox="0 0 30 30">
        <path
            d="M3.1,16.97c0,0.24,0.09,0.45,0.28,0.62c0.16,0.19,0.37,0.28,0.63,0.28H18.7c0.29,0,0.53,0.1,0.73,0.3
        c0.2,0.2,0.3,0.45,0.3,0.74c0,0.29-0.1,0.53-0.3,0.72c-0.2,0.19-0.44,0.29-0.74,0.29c-0.29,0-0.54-0.1-0.73-0.29
        c-0.16-0.18-0.36-0.26-0.6-0.26c-0.25,0-0.46,0.09-0.64,0.26s-0.27,0.38-0.27,0.61c0,0.25,0.09,0.46,0.28,0.63
        c0.56,0.55,1.22,0.83,1.96,0.83c0.78,0,1.45-0.27,2.01-0.81c0.56-0.54,0.83-1.19,0.83-1.97s-0.28-1.44-0.84-2
        c-0.56-0.56-1.23-0.84-2-0.84H4.01c-0.25,0-0.46,0.09-0.64,0.26C3.19,16.51,3.1,16.72,3.1,16.97z M3.1,13.69
        c0,0.23,0.09,0.43,0.28,0.61c0.17,0.18,0.38,0.26,0.63,0.26h20.04c0.78,0,1.45-0.27,2.01-0.82c0.56-0.54,0.84-1.2,0.84-1.97
        c0-0.77-0.28-1.44-0.84-1.99s-1.23-0.83-2.01-0.83c-0.77,0-1.42,0.27-1.95,0.8c-0.18,0.16-0.27,0.38-0.27,0.67
        c0,0.26,0.09,0.47,0.26,0.63c0.17,0.16,0.38,0.24,0.63,0.24c0.24,0,0.45-0.08,0.63-0.24c0.19-0.21,0.42-0.31,0.7-0.31
        c0.29,0,0.53,0.1,0.73,0.3c0.2,0.2,0.3,0.44,0.3,0.73c0,0.29-0.1,0.53-0.3,0.72c-0.2,0.19-0.44,0.29-0.73,0.29H4.01
        c-0.25,0-0.46,0.09-0.64,0.26C3.19,13.23,3.1,13.44,3.1,13.69z M4.67,20.61c0,0.24,0.08,0.43,0.24,0.58
        c0.16,0.16,0.36,0.24,0.58,0.24c0.24,0,0.45-0.08,0.62-0.23s0.25-0.35,0.25-0.59c0-0.23-0.09-0.43-0.26-0.6
        c-0.17-0.17-0.38-0.25-0.61-0.25c-0.22,0-0.42,0.08-0.58,0.25C4.75,20.18,4.67,20.38,4.67,20.61z M5.62,10.68
        c0,0.24,0.08,0.43,0.24,0.58c0.16,0.16,0.36,0.24,0.58,0.24c0.24,0,0.45-0.08,0.61-0.23c0.17-0.16,0.25-0.35,0.25-0.59
        c0-0.23-0.08-0.43-0.25-0.6C6.89,9.92,6.68,9.83,6.45,9.83c-0.22,0-0.42,0.08-0.58,0.25C5.7,10.25,5.62,10.45,5.62,10.68z
        M8.65,8.37c0,0.24,0.08,0.43,0.24,0.58C9.05,9.12,9.25,9.2,9.47,9.2c0.24,0,0.45-0.08,0.62-0.23c0.17-0.16,0.25-0.35,0.25-0.59
        c0-0.23-0.09-0.43-0.26-0.6C9.92,7.61,9.71,7.53,9.47,7.53c-0.22,0-0.42,0.08-0.58,0.25C8.73,7.94,8.65,8.14,8.65,8.37z M8.74,19.97
        c0,0.23,0.08,0.43,0.25,0.58c0.16,0.16,0.35,0.24,0.57,0.24c0.24,0,0.45-0.08,0.62-0.23c0.17-0.16,0.25-0.35,0.25-0.59
        c0-0.23-0.09-0.43-0.26-0.6c-0.17-0.17-0.38-0.25-0.61-0.25c-0.22,0-0.42,0.08-0.58,0.25C8.82,19.54,8.74,19.74,8.74,19.97z
        M12.92,10.14c0,0.24,0.08,0.43,0.24,0.58c0.16,0.16,0.36,0.24,0.58,0.24c0.24,0,0.45-0.08,0.62-0.23s0.25-0.35,0.25-0.59
        c0-0.23-0.09-0.43-0.26-0.6c-0.17-0.17-0.38-0.25-0.61-0.25c-0.23,0-0.42,0.08-0.58,0.25C13,9.71,12.92,9.91,12.92,10.14z
        M13.24,21.13c0,0.23,0.08,0.42,0.25,0.58c0.16,0.16,0.35,0.24,0.57,0.24c0.24,0,0.45-0.08,0.62-0.23c0.17-0.16,0.25-0.35,0.25-0.59
        c0-0.23-0.09-0.43-0.26-0.6c-0.17-0.17-0.38-0.25-0.61-0.25c-0.22,0-0.42,0.08-0.58,0.25S13.24,20.9,13.24,21.13z M17.72,9.98
        c0,0.23,0.08,0.42,0.24,0.57c0.17,0.17,0.36,0.25,0.58,0.25c0.24,0,0.45-0.08,0.62-0.23c0.17-0.16,0.25-0.35,0.25-0.59
        c0-0.23-0.09-0.43-0.26-0.6c-0.17-0.17-0.38-0.25-0.61-0.25c-0.22,0-0.41,0.08-0.58,0.25C17.81,9.55,17.72,9.75,17.72,9.98z
        M22.81,17.04c0,0.24,0.08,0.43,0.24,0.58c0.16,0.16,0.36,0.24,0.58,0.24c0.24,0,0.45-0.08,0.61-0.23c0.17-0.16,0.25-0.35,0.25-0.59
        c0-0.23-0.08-0.43-0.25-0.6c-0.17-0.17-0.37-0.25-0.61-0.25c-0.23,0-0.42,0.08-0.58,0.25C22.9,16.61,22.81,16.81,22.81,17.04z" />
    </symbol>

    <symbol id="visibility" viewBox="0 0 30 30">
        <path d="M2.62,21.05c0-0.24,0.08-0.45,0.25-0.61c0.17-0.16,0.38-0.24,0.63-0.24h18.67c0.25,0,0.45,0.08,0.61,0.24
        c0.16,0.16,0.24,0.36,0.24,0.61c0,0.23-0.08,0.43-0.25,0.58c-0.17,0.16-0.37,0.23-0.6,0.23H3.5c-0.25,0-0.46-0.08-0.63-0.23
        C2.7,21.47,2.62,21.28,2.62,21.05z M5.24,17.91c0-0.24,0.09-0.44,0.26-0.6c0.15-0.15,0.35-0.23,0.59-0.23h18.67
        c0.23,0,0.42,0.08,0.58,0.24c0.16,0.16,0.23,0.35,0.23,0.59c0,0.24-0.08,0.44-0.23,0.6c-0.16,0.17-0.35,0.25-0.58,0.25H6.09
        c-0.24,0-0.44-0.08-0.6-0.25C5.32,18.34,5.24,18.14,5.24,17.91z M5.37,15.52c0,0.09,0.05,0.13,0.15,0.13h1.43
        c0.06,0,0.13-0.05,0.2-0.16c0.24-0.52,0.59-0.94,1.06-1.27c0.47-0.33,0.99-0.52,1.55-0.56l0.55-0.07c0.11,0,0.17-0.06,0.17-0.18
        l0.07-0.5c0.11-1.08,0.56-1.98,1.37-2.7c0.81-0.72,1.76-1.08,2.85-1.08c1.08,0,2.02,0.36,2.83,1.07c0.8,0.71,1.26,1.61,1.37,2.68
        l0.08,0.57c0,0.11,0.07,0.17,0.2,0.17h1.59c0.64,0,1.23,0.17,1.76,0.52s0.92,0.8,1.18,1.37c0.07,0.11,0.14,0.16,0.21,0.16h1.43
        c0.12,0,0.17-0.07,0.14-0.23c-0.29-1.02-0.88-1.86-1.74-2.51c-0.87-0.65-1.86-0.97-2.97-0.97h-0.32c-0.33-1.33-1.03-2.42-2.1-3.27
        s-2.28-1.27-3.65-1.27c-1.4,0-2.64,0.44-3.73,1.32s-1.78,2-2.09,3.36c-0.85,0.2-1.6,0.6-2.24,1.21c-0.64,0.61-1.09,1.33-1.34,2.18
        v-0.04C5.37,15.45,5.37,15.48,5.37,15.52z M6.98,24.11c0-0.24,0.09-0.43,0.26-0.59c0.15-0.15,0.35-0.23,0.6-0.23h18.68
        c0.24,0,0.44,0.08,0.6,0.23c0.17,0.16,0.25,0.35,0.25,0.58c0,0.24-0.08,0.44-0.25,0.61c-0.17,0.17-0.37,0.25-0.6,0.25H7.84
        c-0.23,0-0.43-0.09-0.6-0.26C7.07,24.55,6.98,24.34,6.98,24.11z" />
    </symbol>

    <symbol id="sunrise" viewBox="0 0 30 30">
        <path d="M2.75,15.36c0-0.25,0.1-0.48,0.3-0.69c0.22-0.19,0.46-0.29,0.7-0.29h2.33c0.27,0,0.49,0.1,0.67,0.29
        c0.18,0.19,0.27,0.43,0.27,0.69c0,0.29-0.09,0.53-0.27,0.72c-0.18,0.19-0.41,0.29-0.67,0.29H3.75c-0.27,0-0.5-0.1-0.7-0.3
        C2.85,15.86,2.75,15.62,2.75,15.36z M6.08,7.38c0-0.27,0.09-0.5,0.26-0.68C6.57,6.5,6.8,6.4,7.05,6.4c0.26,0,0.49,0.1,0.68,0.29
        l1.64,1.65c0.19,0.22,0.28,0.45,0.28,0.69c0,0.28-0.09,0.52-0.27,0.7s-0.4,0.28-0.66,0.28c-0.24,0-0.48-0.1-0.7-0.29L6.34,8.11
        C6.17,7.9,6.08,7.65,6.08,7.38z M8.08,20.88c0-0.28,0.1-0.51,0.29-0.68c0.18-0.17,0.4-0.26,0.68-0.26h2.63l3.11-2.92
        c0.1-0.08,0.21-0.08,0.34,0l3.16,2.92h2.77c0.27,0,0.5,0.09,0.69,0.28c0.19,0.18,0.29,0.41,0.29,0.67c0,0.27-0.1,0.5-0.29,0.69
        c-0.19,0.19-0.42,0.29-0.69,0.29h-3.38c-0.1,0-0.2-0.02-0.29-0.07l-2.41-2.27l-2.39,2.27c-0.08,0.05-0.17,0.07-0.28,0.07H9.05
        c-0.27,0-0.5-0.1-0.69-0.29C8.17,21.38,8.08,21.15,8.08,20.88z M9,15.36c0,0.97,0.21,1.85,0.62,2.64c0.02,0.12,0.11,0.18,0.25,0.18
        h1.88c0.07,0,0.12-0.03,0.15-0.08c0.03-0.06,0.02-0.12-0.02-0.19c-0.64-0.77-0.96-1.62-0.96-2.55c0-1.12,0.4-2.08,1.2-2.87
        c0.8-0.79,1.76-1.18,2.89-1.18c1.12,0,2.07,0.39,2.86,1.18c0.79,0.79,1.19,1.74,1.19,2.87c0,0.94-0.32,1.79-0.95,2.55
        c-0.04,0.07-0.05,0.13-0.03,0.19s0.07,0.08,0.15,0.08h1.9c0.13,0,0.21-0.06,0.23-0.18C20.8,17.23,21,16.35,21,15.36
        c0-0.81-0.16-1.59-0.48-2.32c-0.32-0.74-0.75-1.37-1.28-1.91c-0.53-0.53-1.17-0.96-1.91-1.28c-0.74-0.32-1.51-0.47-2.32-0.47
        c-0.81,0-1.59,0.16-2.33,0.47c-0.74,0.32-1.38,0.74-1.92,1.28c-0.54,0.53-0.97,1.17-1.29,1.91C9.16,13.77,9,14.54,9,15.36z
        M14.03,6.4v-2.3c0-0.29,0.09-0.52,0.28-0.71s0.43-0.28,0.71-0.28c0.28,0,0.51,0.09,0.7,0.28S16,3.83,16,4.11v2.3
        c0,0.29-0.09,0.52-0.28,0.71c-0.18,0.18-0.42,0.28-0.7,0.28c-0.29,0-0.52-0.09-0.71-0.28C14.12,6.93,14.03,6.69,14.03,6.4z
        M20.38,9.04c0-0.25,0.09-0.48,0.27-0.69l1.62-1.65c0.19-0.19,0.43-0.29,0.7-0.29c0.27,0,0.51,0.1,0.69,0.29
        c0.19,0.19,0.28,0.42,0.28,0.69c0,0.29-0.09,0.53-0.26,0.73L22,9.73c-0.21,0.19-0.45,0.29-0.7,0.29c-0.27,0-0.49-0.09-0.66-0.28
        S20.38,9.32,20.38,9.04z M22.99,15.36c0-0.27,0.09-0.5,0.27-0.69c0.18-0.19,0.4-0.29,0.66-0.29h2.35c0.27,0,0.5,0.1,0.69,0.29
        c0.19,0.19,0.29,0.43,0.29,0.69c0,0.28-0.1,0.51-0.29,0.71s-0.42,0.3-0.69,0.3h-2.35c-0.27,0-0.49-0.1-0.67-0.29
        C23.08,15.88,22.99,15.64,22.99,15.36z" />
    </symbol>

    <symbol id="sunset" viewBox="0 0 30 30">
        <path d="M2.88,15.47c0-0.28,0.1-0.5,0.3-0.68c0.17-0.18,0.4-0.26,0.68-0.26h2.31c0.27,0,0.49,0.09,0.67,0.27
        c0.17,0.18,0.26,0.4,0.26,0.67c0,0.28-0.09,0.52-0.27,0.71c-0.18,0.19-0.4,0.29-0.66,0.29H3.87c-0.27,0-0.5-0.1-0.69-0.3
        C2.98,15.97,2.88,15.74,2.88,15.47z M6.17,7.61c0-0.28,0.08-0.51,0.25-0.68c0.2-0.2,0.43-0.3,0.7-0.3c0.29,0,0.51,0.1,0.68,0.3
        l1.62,1.63c0.46,0.44,0.46,0.89,0,1.35c-0.19,0.19-0.4,0.28-0.65,0.28c-0.22,0-0.44-0.09-0.68-0.28L6.43,8.29
        C6.26,8.11,6.17,7.88,6.17,7.61z M8.14,20.89c0-0.26,0.1-0.49,0.3-0.69c0.18-0.18,0.41-0.27,0.68-0.27h3.22
        c0.11,0,0.2,0.02,0.28,0.08l2.35,2.22L17.36,20c0.07-0.05,0.17-0.08,0.29-0.08h3.3c0.27,0,0.5,0.09,0.69,0.28
        c0.19,0.19,0.29,0.42,0.29,0.68c0,0.27-0.1,0.5-0.29,0.69c-0.19,0.19-0.42,0.29-0.69,0.29h-2.68l-3.14,2.84
        c-0.12,0.09-0.23,0.09-0.33,0l-3.08-2.84h-2.6c-0.27,0-0.5-0.1-0.69-0.29C8.24,21.39,8.14,21.16,8.14,20.89z M9.08,15.47
        c0,0.99,0.19,1.87,0.58,2.62c0.06,0.11,0.15,0.16,0.27,0.16h1.87c0.08,0,0.13-0.02,0.15-0.07c0.02-0.05-0.01-0.11-0.07-0.18
        c-0.59-0.74-0.89-1.59-0.89-2.53c0-1.1,0.39-2.04,1.18-2.81c0.79-0.77,1.74-1.16,2.85-1.16c1.1,0,2.04,0.39,2.83,1.16
        c0.78,0.78,1.18,1.71,1.18,2.8c0,0.94-0.3,1.79-0.89,2.53c-0.07,0.07-0.09,0.13-0.07,0.18c0.02,0.05,0.07,0.07,0.15,0.07h1.88
        c0.13,0,0.21-0.05,0.24-0.16c0.41-0.78,0.62-1.66,0.62-2.62c0-0.79-0.16-1.56-0.47-2.29s-0.74-1.37-1.27-1.9s-1.16-0.95-1.89-1.27
        c-0.73-0.32-1.5-0.47-2.3-0.47c-0.8,0-1.57,0.16-2.3,0.47c-0.73,0.32-1.36,0.74-1.89,1.27s-0.95,1.16-1.27,1.9
        S9.08,14.68,9.08,15.47z M14.04,6.66V4.33c0-0.27,0.1-0.5,0.29-0.69s0.42-0.29,0.69-0.29c0.27,0,0.5,0.1,0.69,0.29
        s0.29,0.42,0.29,0.69v2.32c0,0.27-0.1,0.5-0.29,0.69c-0.19,0.19-0.42,0.29-0.69,0.29c-0.27,0-0.5-0.1-0.69-0.29
        C14.13,7.15,14.04,6.93,14.04,6.66z M20.31,9.24c0-0.28,0.09-0.51,0.26-0.67l1.63-1.63c0.16-0.2,0.39-0.3,0.68-0.3
        c0.27,0,0.5,0.1,0.68,0.29c0.18,0.19,0.27,0.42,0.27,0.69c0,0.28-0.08,0.51-0.25,0.68l-1.66,1.63c-0.23,0.19-0.46,0.28-0.69,0.28
        c-0.26,0-0.48-0.09-0.66-0.28C20.4,9.74,20.31,9.51,20.31,9.24z M22.9,15.47c0-0.27,0.09-0.49,0.26-0.67
        c0.17-0.18,0.4-0.27,0.67-0.27h2.32c0.27,0,0.5,0.09,0.69,0.27c0.19,0.18,0.29,0.4,0.29,0.67c0,0.27-0.1,0.5-0.29,0.7
        c-0.19,0.2-0.42,0.3-0.69,0.3h-2.32c-0.26,0-0.48-0.1-0.66-0.29C22.99,15.99,22.9,15.75,22.9,15.47z" />
    </symbol>

    <symbol id="windSpeed" viewBox="0 0 30 30">
        <path d="M3.1,16.97c0,0.24,0.09,0.45,0.28,0.62c0.16,0.19,0.37,0.28,0.63,0.28H18.7c0.29,0,0.53,0.1,0.73,0.3
        c0.2,0.2,0.3,0.45,0.3,0.74c0,0.29-0.1,0.53-0.3,0.72c-0.2,0.19-0.44,0.29-0.74,0.29c-0.29,0-0.54-0.1-0.73-0.29
        c-0.16-0.18-0.36-0.26-0.6-0.26c-0.25,0-0.46,0.09-0.64,0.26s-0.27,0.38-0.27,0.61c0,0.25,0.09,0.46,0.28,0.63
        c0.56,0.55,1.22,0.83,1.96,0.83c0.78,0,1.45-0.27,2.01-0.81c0.56-0.54,0.83-1.19,0.83-1.97s-0.28-1.44-0.84-2
        c-0.56-0.56-1.23-0.84-2-0.84H4.01c-0.25,0-0.46,0.09-0.64,0.26C3.19,16.51,3.1,16.72,3.1,16.97z M3.1,13.69
        c0,0.23,0.09,0.43,0.28,0.61c0.17,0.18,0.38,0.26,0.63,0.26h20.04c0.78,0,1.45-0.27,2.01-0.82c0.56-0.54,0.84-1.2,0.84-1.97
        c0-0.77-0.28-1.44-0.84-1.99s-1.23-0.83-2.01-0.83c-0.77,0-1.42,0.27-1.95,0.8c-0.18,0.16-0.27,0.38-0.27,0.67
        c0,0.26,0.09,0.47,0.26,0.63c0.17,0.16,0.38,0.24,0.63,0.24c0.24,0,0.45-0.08,0.63-0.24c0.19-0.21,0.42-0.31,0.7-0.31
        c0.29,0,0.53,0.1,0.73,0.3c0.2,0.2,0.3,0.44,0.3,0.73c0,0.29-0.1,0.53-0.3,0.72c-0.2,0.19-0.44,0.29-0.73,0.29H4.01
        c-0.25,0-0.46,0.09-0.64,0.26C3.19,13.23,3.1,13.44,3.1,13.69z" />
    </symbol>

    <symbol id="zoomIn" viewBox="0 0 612.009 612.01">
        <path d="M354.252,237.4H277.81v-76.576c0-10.56-8.551-19.149-19.111-19.149s-19.11,8.57-19.11,19.149V237.4h-76.424
        c-10.56,0-19.11,3.482-19.11,14.061s8.551,24.237,19.11,24.237h76.443v76.558c0,10.579,8.551,19.148,19.11,19.148
        c10.56,0,19.111-8.569,19.111-19.148v-76.558h76.443c10.56,0,19.11-8.57,19.11-19.149
        C373.363,245.971,364.812,237.4,354.252,237.4z M606.192,578.714L448.18,423.228c41.377-44.955,66.801-104.41,66.801-169.834
        C514.981,113.439,399.705,0,257.494,0C115.283,0,0.007,113.439,0.007,253.393s115.276,253.393,257.487,253.393
        c61.445,0,117.801-21.253,162.068-56.586l158.624,156.099c7.729,7.614,20.277,7.614,28.006,0
        C613.939,598.686,613.939,586.328,606.192,578.714z M257.494,467.8c-120.326,0-217.869-95.993-217.869-214.407
        S137.168,38.986,257.494,38.986c120.327,0,217.869,95.993,217.869,214.407S377.821,467.8,257.494,467.8z" />
    </symbol>

    <symbol id="zoomOut" viewBox="0 0 612.01 612.01">
        <path d="M357.542,237.343H165.345c-10.35,0-18.748,8.264-18.748,18.441c0,10.177,8.398,18.441,18.748,18.441h192.196
        c10.35,0,18.748-8.264,18.748-18.441C376.27,245.588,367.891,237.343,357.542,237.343z M606.209,578.714L448.198,423.228
        C489.576,378.272,515,318.817,515,253.393C514.98,113.439,399.704,0,257.493,0C115.282,0,0.006,113.439,0.006,253.393
        s115.276,253.393,257.487,253.393c61.445,0,117.801-21.253,162.068-56.586l158.624,156.099c7.729,7.614,20.277,7.614,28.006,0
        C613.938,598.686,613.938,586.328,606.209,578.714z M257.493,467.8c-120.326,0-217.869-95.993-217.869-214.407
        S137.167,38.986,257.493,38.986c120.327,0,217.869,95.993,217.869,214.407S377.82,467.8,257.493,467.8z" />
    </symbol>

    <symbol id="fit" viewBox="0 0 612 612">
        <path d="M267.75,497.25H140.97l130.031-130.031l-27.043-27.042l-129.82,129.82l0.612-125.747
		c0-10.557-8.568-19.125-19.125-19.125S76.5,333.693,76.5,344.25v172.125c0,5.661,2.333,10.231,6.043,13.368
		c3.461,3.538,8.281,5.757,13.617,5.757H267.75c10.557,0,19.125-8.568,19.125-19.125S278.307,497.25,267.75,497.25z M535.5,0h-459
		C34.253,0,0,34.253,0,76.5v459C0,577.747,34.253,612,76.5,612h459c42.247,0,76.5-34.253,76.5-76.5v-459
		C612,34.253,577.747,0,535.5,0z M573.75,535.5c0,21.114-17.117,38.25-38.25,38.25h-459c-21.133,0-38.25-17.117-38.25-38.25v-459
        c0-21.114,17.117-38.25,38.25-38.25h459c21.133,0,38.25,17.117,38.25,38.25V535.5z M515.84,76.5H344.25
		c-10.557,0-19.125,8.568-19.125,19.125s8.568,19.125,19.125,19.125h126.779l-130.03,130.031l27.042,27.043l129.821-129.821
		L497.25,267.75c0,10.557,8.568,19.125,19.125,19.125s19.125-8.568,19.125-19.125V95.625c0-5.661-2.333-10.232-6.044-13.388
		C525.995,78.699,521.176,76.5,515.84,76.5z" />
    </symbol>

    <symbol id="layers" viewBox="0 0 612 612">
        <path
            d="M306,561.072L40.793,438.806C41.711,439.36,17.327,428.345,0,418.438c0,14.784,3.71,41.884,17.5,49.189l259.641,116.72
        c22.95,10.825,32.837,10.825,57.7,0l259.641-116.72C607.314,461.66,612,433.565,612,418.438
        c-16.696,8.357-40.335,20.272-40.794,20.368L306,561.072z M306,51.639C307.912,53.877,307.415,52.098,306,51.639L306,51.639z
            M17.5,345.361l259.641,116.72c22.95,10.824,32.837,10.824,57.7,0l259.641-116.72C607.314,339.394,612,311.3,612,296.171
        c-16.696,8.358-40.335,20.273-40.794,20.369L306,438.806L40.793,316.54c0.918,0.555-23.466-10.462-40.793-20.369
        C0,310.955,3.71,338.056,17.5,345.361z M17.5,223.095l259.641,116.72c22.95,10.825,32.837,10.825,57.7,0l259.641-116.72
        c19.125-8.912,19.756-46.818,0-57.643L334.841,28.364c-20.388-12.087-34.75-11.456-57.701,0L17.5,165.452
        C-2.257,178.189-2.888,212.27,17.5,223.095z M306,51.639l265.206,142.634L306,306.04L40.793,194.273L306,51.639z" />
    </symbol>

    <symbol id="globe" viewBox="0 0 612 612">
        <path d="M306,0C136.992,0,0,136.992,0,306c0,168.988,136.992,306,306,306s306-136.992,306-306S475.008,0,306,0z M527.773,156.271
        c25.628,37.752,41.826,82.391,45.25,130.604H419.928c-0.956-35.553-3.939-70.284-9.601-103.428
        C451.771,177.557,491.149,168.453,527.773,156.271z M501.438,123.28c-31.231,9.869-64.203,17.404-98.57,22.472
        c-8.032-35.037-18.437-68.295-31.174-99.048C422.146,59.459,466.918,86.502,501.438,123.28z M230.399,286.875
        c1.014-33.679,4.074-66.804,9.849-98.627c21.497,1.893,43.414,3.002,65.752,3.002s44.255-1.109,65.771-3.002
        c5.757,31.824,8.817,64.948,9.831,98.627H230.399z M381.602,325.125c-1.014,33.679-4.074,66.804-9.85,98.628
        c-21.497-1.894-43.414-3.003-65.752-3.003s-44.255,1.109-65.771,3.003c-5.756-31.824-8.816-64.968-9.83-98.628H381.602z
            M287.43,39.187c6.158-0.42,12.297-0.937,18.57-0.937c6.273,0,12.412,0.517,18.57,0.937
        c16.295,33.909,29.452,71.604,39.226,111.633c-19.029,1.645-38.288,2.658-57.796,2.658c-19.507,0-38.767-0.995-57.796-2.658
        C257.977,110.791,271.154,73.077,287.43,39.187z M240.325,46.703c-12.737,30.753-23.16,64.012-31.174,99.048
        c-34.387-5.068-67.358-12.603-98.589-22.472C145.082,86.502,189.854,59.459,240.325,46.703z M84.227,156.271
        c36.625,12.183,76.003,21.305,117.447,27.176c-5.642,33.144-8.645,67.875-9.601,103.428H38.977
        C42.4,238.661,58.599,194.023,84.227,156.271z M84.227,455.729c-25.627-37.753-41.827-82.391-45.25-130.604h153.096
        c0.957,35.554,3.94,70.284,9.601,103.428C160.229,434.425,120.851,443.547,84.227,455.729z M110.562,488.701
        c31.231-9.868,64.203-17.404,98.57-22.453c8.033,35.037,18.437,68.296,31.174,99.049
        C189.854,552.54,145.082,525.479,110.562,488.701z M324.57,572.812c-6.158,0.421-12.297,0.938-18.57,0.938
        c-6.273,0-12.412-0.517-18.57-0.938c-16.275-33.889-29.453-71.604-39.226-111.632c19.029-1.664,38.289-2.659,57.796-2.659
        c19.508,0,38.767,0.995,57.796,2.659C354.022,501.189,340.846,538.904,324.57,572.812z M371.675,565.297
        c12.737-30.753,23.161-64.012,31.174-99.049c34.387,5.068,67.358,12.604,98.57,22.453
        C466.918,525.479,422.146,552.54,371.675,565.297z M527.773,455.729c-36.624-12.183-76.003-21.305-117.446-27.177
        c5.642-33.144,8.645-67.874,9.601-103.428h153.096C569.6,373.339,553.401,417.977,527.773,455.729z" />
    </symbol>

    <symbol id="mainContent" viewBox="0 0 612 612">
        <path d="M76.5,191.25h459c42.247,0,76.5-34.253,76.5-76.5s-34.253-76.5-76.5-76.5h-459C34.253,38.25,0,72.503,0,114.75
        S34.253,191.25,76.5,191.25z M76.5,76.5h459c21.133,0,38.25,17.117,38.25,38.25S556.633,153,535.5,153h-459
        c-21.133,0-38.25-17.117-38.25-38.25S55.367,76.5,76.5,76.5z M535.5,420.75h-459c-42.247,0-76.5,34.253-76.5,76.5
        s34.253,76.5,76.5,76.5h459c42.247,0,76.5-34.253,76.5-76.5S577.747,420.75,535.5,420.75z M535.5,535.5h-459
        c-21.133,0-38.25-17.117-38.25-38.25S55.367,459,76.5,459h459c21.133,0,38.25,17.117,38.25,38.25S556.633,535.5,535.5,535.5z
            M535.5,229.5h-459C34.253,229.5,0,263.753,0,306s34.253,76.5,76.5,76.5h459c42.247,0,76.5-34.253,76.5-76.5
        S577.747,229.5,535.5,229.5z M535.5,344.25h-459c-21.133,0-38.25-17.117-38.25-38.25c0-21.114,17.117-38.25,38.25-38.25h459
        c21.133,0,38.25,17.117,38.25,38.25C573.75,327.133,556.633,344.25,535.5,344.25z" />
    </symbol>

    <symbol id="subContent" viewBox="0 0 612 612">
        <path d="M174.857,349.714H87.429C39.146,349.714,0,388.86,0,437.143v87.429C0,572.854,39.146,612,87.429,612h87.428
        c48.283,0,87.429-39.146,87.429-87.429v-87.429C262.286,388.86,223.14,349.714,174.857,349.714z M218.571,524.571
        c0,24.131-19.562,43.715-43.714,43.715H87.429c-24.152,0-43.714-19.562-43.714-43.715v-87.429
        c0-24.152,19.562-43.714,43.714-43.714h87.428c24.152,0,43.714,19.562,43.714,43.714V524.571z M524.571,0h-87.429
        c-48.282,0-87.429,39.146-87.429,87.429v87.429c0,48.282,39.146,87.428,87.429,87.428h87.429
        c48.282,0,87.429-39.146,87.429-87.428V87.429C612,39.146,572.854,0,524.571,0z M568.286,174.857
        c0,24.13-19.584,43.714-43.715,43.714h-87.429c-24.152,0-43.714-19.584-43.714-43.714V87.429
        c0-24.152,19.562-43.714,43.714-43.714h87.429c24.152,0,43.715,19.562,43.715,43.714V174.857z M524.571,349.714h-87.429
        c-48.282,0-87.429,39.146-87.429,87.429v87.429c0,48.282,39.146,87.429,87.429,87.429h87.429
        C572.854,612,612,572.854,612,524.571v-87.429C612,388.86,572.854,349.714,524.571,349.714z M568.286,524.571
        c0,24.131-19.584,43.715-43.715,43.715h-87.429c-24.152,0-43.714-19.562-43.714-43.715v-87.429
        c0-24.152,19.562-43.714,43.714-43.714h87.429c24.152,0,43.715,19.562,43.715,43.714V524.571z M174.857,0H87.429
        C39.146,0,0,39.146,0,87.429v87.429c0,48.282,39.146,87.428,87.429,87.428h87.428c48.283,0,87.429-39.146,87.429-87.428V87.429
        C262.286,39.146,223.14,0,174.857,0z M218.571,174.857c0,24.13-19.562,43.714-43.714,43.714H87.429
        c-24.152,0-43.714-19.584-43.714-43.714V87.429c0-24.152,19.562-43.714,43.714-43.714h87.428
        c24.152,0,43.714,19.562,43.714,43.714V174.857z" />
    </symbol>

    <symbol id="marker" viewBox="0 0 792 792">
        <path d="M396,173.25c-68.335,0-123.75,55.415-123.75,123.75S327.665,420.75,396,420.75S519.75,365.335,519.75,297
        S464.335,173.25,396,173.25z M396,371.25c-41.011,0-74.25-33.239-74.25-74.25s33.239-74.25,74.25-74.25s74.25,33.239,74.25,74.25
        S437.011,371.25,396,371.25z M396,0C231.982,0,99,132.982,99,297c0,124.171,247.624,495.248,297,495
        c48.609,0.247,297-372.487,297-495C693,132.982,560.019,0,396,0z M396,717.75C354.841,717.973,148.5,400.479,148.5,297
        c0-136.694,110.806-247.5,247.5-247.5S643.5,160.306,643.5,297C643.5,399.094,436.516,717.973,396,717.75z" />
    </symbol>

</svg>